<?xml version="1.0" encoding="UTF-8" standalone="no"?><!DOCTYPE svg PUBLIC "-//W3C//DTD SVG 1.1//EN" "http://www.w3.org/Graphics/SVG/1.1/DTD/svg11.dtd"><svg width="100%" height="100%" viewBox="0 0 842 842" version="1.1" xmlns="http://www.w3.org/2000/svg" xmlns:xlink="http://www.w3.org/1999/xlink" xml:space="preserve" xmlns:serif="http://www.serif.com/" style="fill-rule:evenodd;clip-rule:evenodd;stroke-linejoin:round;stroke-miterlimit:2;"><circle cx="420.514" cy="420.514" r="370.514"/><path d="M420.514,-0c-232.088,-0 -420.514,188.426 -420.514,420.514c0,232.088 188.426,420.514 420.514,420.514c232.088,-0 420.514,-188.426 420.514,-420.514c-0,-232.088 -188.426,-420.514 -420.514,-420.514Zm-0,50c204.492,-0 370.514,166.022 370.514,370.514c-0,204.492 -166.022,370.514 -370.514,370.514c-204.492,-0 -370.514,-166.022 -370.514,-370.514c-0,-204.492 166.022,-370.514 370.514,-370.514Z" style="fill:url(#_Linear1);"/><g><path d="M422.049,603.715l48.915,-107.655l59.41,133.5l-96.585,0l-11.74,-25.845Zm-222.759,-217.713l97.612,0l29.853,67.887l50.108,-104.972l-30.142,-69.663l-99.101,0l-48.33,106.748Z" style="fill:url(#_Linear2);"/><path d="M428.573,295.094c18.458,-48.853 65.674,-83.626 120.947,-83.626c71.33,-0 129.241,57.91 129.241,129.24c-0,71.33 -57.911,129.24 -129.241,129.24c-33.311,0 -63.695,-12.629 -86.614,-33.351c-12.871,29.421 -25.665,59.427 -38.327,90.387c-86.351,211.152 -346.403,57.734 -235.038,-114.192l96.89,-0.99c-9.838,20.956 -19.568,43.06 -29.515,69.623c-23.329,62.297 57.273,77.487 77.741,29.728c19.67,-45.899 39.466,-91.551 59.328,-137.062c11.511,-26.374 23.044,-52.7 34.588,-78.997Zm120.947,5.942c21.896,0 39.672,17.776 39.672,39.672c-0,21.895 -17.776,39.672 -39.672,39.672c-21.895,-0 -39.671,-17.777 -39.671,-39.672c-0,-21.896 17.776,-39.672 39.671,-39.672Z" style="fill:url(#_Linear3);"/></g><defs><linearGradient id="_Linear1" x1="0" y1="0" x2="1" y2="0" gradientUnits="userSpaceOnUse" gradientTransform="matrix(741.028,0,0,741.028,50,420.514)"><stop offset="0" style="stop-color:#a6ff00;stop-opacity:1"/><stop offset="0.52" style="stop-color:#31ff4a;stop-opacity:1"/><stop offset="1" style="stop-color:#6effb5;stop-opacity:1"/></linearGradient><linearGradient id="_Linear2" x1="0" y1="0" x2="1" y2="0" gradientUnits="userSpaceOnUse" gradientTransform="matrix(516.494,0,0,418.093,162.267,420.514)"><stop offset="0" style="stop-color:#a5ff00;stop-opacity:0.7"/><stop offset="1" style="stop-color:#6dffb5;stop-opacity:0.7"/></linearGradient><linearGradient id="_Linear3" x1="0" y1="0" x2="1" y2="0" gradientUnits="userSpaceOnUse" gradientTransform="matrix(516.494,0,0,418.093,162.267,420.514)"><stop offset="0" style="stop-color:#a5ff00;stop-opacity:1"/><stop offset="1" style="stop-color:#6dffb5;stop-opacity:1"/></linearGradient></defs></svg>